<svg width="14" height="15" viewBox="0 0 14 15" fill="none" xmlns="http://www.w3.org/2000/svg">
<g clip-path="url(#clip0_3919_188486)">
<path d="M13.13 11.1702L7.84001 5.86017C8.04062 5.174 8.05366 4.44662 7.87779 3.7537C7.70192 3.06077 7.34357 2.42762 6.84001 1.92017C6.42569 1.51596 5.92858 1.20649 5.38301 1.01312C4.83743 0.819757 4.25639 0.747105 3.68 0.800173C3.60367 0.805658 3.53061 0.833497 3.46998 0.88019C3.40522 0.921356 3.35872 0.985765 3.34001 1.06018C3.31996 1.13215 3.31996 1.20822 3.34001 1.28018C3.36042 1.35163 3.3982 1.41691 3.44999 1.47019L4.9 2.91019C4.99463 3.0044 5.06944 3.11659 5.12 3.24018C5.16912 3.36421 5.19289 3.49682 5.18998 3.63019C5.19289 3.76356 5.16912 3.89614 5.12 4.02017C5.06809 4.14304 4.99345 4.25498 4.9 4.35016L3.62 5.63019C3.52483 5.72363 3.41285 5.79824 3.28999 5.85016C3.16661 5.90242 3.034 5.92935 2.9 5.92935C2.76601 5.92935 2.63337 5.90242 2.50999 5.85016C2.38713 5.79824 2.27518 5.72363 2.18 5.63019L0.74 4.18018C0.683594 4.12938 0.614466 4.09482 0.539988 4.08017C0.465383 4.05502 0.384611 4.05502 0.310007 4.08017C0.236422 4.1061 0.173228 4.15525 0.129984 4.22019C0.0832907 4.28082 0.0554822 4.35385 0.0499973 4.43018C-0.00176876 5.05608 0.0905845 5.68553 0.319986 6.27017C0.55142 6.85178 0.9142 7.37199 1.37998 7.79016C1.89072 8.2331 2.50376 8.54185 3.16371 8.68851C3.82365 8.83517 4.50972 8.81513 5.15998 8.63019L10.45 13.9302C10.8124 14.2838 11.2987 14.4818 11.805 14.4818C12.3113 14.4818 12.7976 14.2838 13.16 13.9302C13.3381 13.7541 13.4777 13.543 13.57 13.3102C13.669 13.0796 13.7201 12.8312 13.7201 12.5802C13.7201 12.3292 13.669 12.0808 13.57 11.8502C13.4777 11.6174 13.3381 11.4062 13.16 11.2302L13.13 11.1702Z" fill="#EA535E"/>
</g>
<defs>
<clipPath id="clip0_3919_188486">
<rect width="13.68" height="13.72" fill="white" transform="translate(0 0.780182)"/>
</clipPath>
</defs>
</svg>
