<svg width="14" height="16" viewBox="0 0 14 16" fill="none" xmlns="http://www.w3.org/2000/svg">
<path d="M8.5677 2.89211H6.8049V1.21416H8.5677V2.89211ZM13.0555 8.67403L9.95834 3.98313C9.89004 3.8801 9.8528 3.76155 9.85062 3.64017V1.21416H9.93631C10.0244 1.21926 10.1126 1.20736 10.1956 1.17919C10.2786 1.15101 10.3546 1.10717 10.4188 1.05035C10.4831 0.99353 10.5343 0.92494 10.5694 0.848805C10.6044 0.77267 10.6224 0.690601 10.6224 0.607654C10.6224 0.524708 10.6044 0.442639 10.5694 0.366503C10.5343 0.290368 10.4831 0.221779 10.4188 0.164959C10.3546 0.10814 10.2786 0.0642932 10.1956 0.0361213C10.1126 0.00794943 10.0244 -0.00395169 9.93631 0.00115091H5.39956C5.3115 -0.00395169 5.22326 0.00794943 5.14027 0.0361213C5.05729 0.0642932 4.98132 0.10814 4.91704 0.164959C4.85276 0.221779 4.80154 0.290368 4.76652 0.366503C4.73151 0.442639 4.71344 0.524708 4.71344 0.607654C4.71344 0.690601 4.73151 0.77267 4.76652 0.848805C4.80154 0.92494 4.85276 0.99353 4.91704 1.05035C4.98132 1.10717 5.05729 1.15101 5.14027 1.17919C5.22326 1.20736 5.3115 1.21926 5.39956 1.21416H5.48526V3.64017C5.49467 3.76193 5.45922 3.88303 5.38487 3.98313L4.28802 5.61965C5.45805 5.77121 6.53039 6.31524 7.3074 7.15147C8.08442 7.9877 8.51375 9.05979 8.51628 10.1701C8.5212 10.6292 8.44847 11.086 8.30083 11.5236H11.3759C11.7322 11.5239 12.0821 11.4342 12.3888 11.2637C12.6955 11.0932 12.9478 10.8482 13.1191 10.5545C13.293 10.2657 13.379 9.93756 13.3678 9.60589C13.3566 9.27422 13.2485 8.95184 13.0555 8.67403Z" fill="#40BE46"/>
<path d="M1.48613 10.1885C1.48613 9.78822 1.61241 9.39696 1.84899 9.0642C2.08558 8.73143 2.42183 8.47211 2.81521 8.31905C3.2086 8.16598 3.64143 8.12605 4.05896 8.2043C4.47649 8.28256 4.85995 8.47548 5.16083 8.75866C5.4617 9.04184 5.66647 9.40256 5.74923 9.79518C5.832 10.1878 5.78903 10.5947 5.62577 10.9643C5.46251 11.334 5.18629 11.6498 4.83206 11.8718C4.47783 12.0939 4.06151 12.2121 3.63576 12.2117C3.06562 12.2105 2.51923 11.9968 2.11631 11.6176C1.71339 11.2384 1.48678 10.7245 1.48613 10.1885ZM6.66924 12.0483C7.05396 11.4948 7.26289 10.8496 7.27152 10.1885C7.27152 9.51244 7.05829 8.8516 6.65879 8.2895C6.25929 7.72741 5.69146 7.28931 5.02711 7.0306C4.36276 6.7719 3.63173 6.70421 2.92646 6.83609C2.22119 6.96798 1.57336 7.29352 1.06489 7.77154C0.556421 8.24957 0.210148 8.8586 0.0698617 9.52164C-0.0704249 10.1847 0.00157542 10.8719 0.276758 11.4965C0.55194 12.1211 1.01794 12.6549 1.61584 13.0305C2.21374 13.4061 2.91668 13.6065 3.63576 13.6065C4.34109 13.6114 5.03122 13.4138 5.61401 13.0403L7.48698 14.7988C7.62339 14.9272 7.80809 15 8.00113 15.0014C8.0974 15.0027 8.19293 14.9854 8.2818 14.9505C8.37067 14.9157 8.45097 14.8641 8.51772 14.7988C8.65236 14.6647 8.72736 14.4872 8.72736 14.3028C8.72736 14.1184 8.65236 13.9409 8.51772 13.8068L6.66924 12.0483Z" fill="#40BE46"/>
</svg>
