<svg width="32" height="32" viewBox="0 0 32 32" fill="none" xmlns="http://www.w3.org/2000/svg">
<path d="M15.8819 5.95042C15.1139 5.95122 14.3474 6.01666 13.5904 6.14603C11.5613 6.50452 11.1928 7.25486 11.1928 8.63864V10.4662H15.988V11.0754H9.39324C8.68745 11.0624 7.99978 11.2993 7.45166 11.7441C6.90355 12.1889 6.53023 12.8131 6.39764 13.5065C5.94753 15.0998 5.94753 16.7867 6.39764 18.38C6.7385 19.7996 7.55252 20.8111 8.94614 20.8111H10.5948V18.6203C10.6124 17.8329 10.9342 17.0829 11.4927 16.5275C12.0511 15.9722 12.803 15.6546 13.5904 15.6414H18.3801C18.6975 15.639 19.0114 15.5741 19.3038 15.4503C19.5961 15.3265 19.8612 15.1463 20.0839 14.92C20.3066 14.6937 20.4825 14.4258 20.6015 14.1314C20.7205 13.8371 20.7804 13.5222 20.7776 13.2047V8.63866C20.7776 7.33913 19.6814 6.36292 18.3801 6.14605C17.5543 6.01107 16.7186 5.94564 15.8819 5.95044V5.95042ZM13.2886 7.42028C13.4699 7.41748 13.6478 7.46863 13.7999 7.56722C13.9519 7.66581 14.0713 7.80738 14.1427 7.97395C14.2141 8.14051 14.2343 8.32455 14.2009 8.50267C14.1675 8.68078 14.0818 8.84494 13.9549 8.97426C13.8279 9.10359 13.6654 9.19224 13.4879 9.22896C13.3104 9.26569 13.126 9.24881 12.9582 9.18049C12.7903 9.11217 12.6466 8.99548 12.5452 8.84526C12.4438 8.69504 12.3894 8.51807 12.3888 8.33684C12.387 8.0961 12.4807 7.86446 12.6494 7.69266C12.818 7.52087 13.0479 7.42292 13.2886 7.42028Z" fill="#4B7196"/>
<path d="M21.3757 11.0752V13.2045C21.3668 14.0004 21.0498 14.7619 20.4911 15.3289C19.9325 15.8959 19.1758 16.2242 18.3801 16.2449H13.5905C12.9518 16.2576 12.3434 16.5196 11.8954 16.9749C11.4473 17.4303 11.1952 18.0428 11.1929 18.6816V23.2477C11.1929 24.5472 12.3229 25.3115 13.5905 25.6844C15.1498 26.1721 16.8208 26.1721 18.3801 25.6844C19.5873 25.3349 20.7777 24.6314 20.7777 23.2477V21.4201H15.9881V20.8109H23.1753C24.5689 20.8109 25.0882 19.8389 25.5729 18.3798C26.0735 16.8777 26.0522 15.4332 25.5729 13.5064C25.2285 12.119 24.5707 11.0752 23.1753 11.0752H21.3757V11.0752ZM18.6819 22.6384C18.8633 22.6356 19.0415 22.6869 19.1937 22.7858C19.3459 22.8846 19.4652 23.0265 19.5364 23.1934C19.6077 23.3603 19.6276 23.5446 19.5937 23.7229C19.5599 23.9012 19.4737 24.0653 19.3461 24.1944C19.2186 24.3235 19.0555 24.4117 18.8777 24.4478C18.6999 24.4839 18.5153 24.4662 18.3475 24.3971C18.1798 24.3279 18.0364 24.2103 17.9357 24.0594C17.835 23.9084 17.7815 23.7309 17.7821 23.5494C17.7813 23.4305 17.8039 23.3126 17.8487 23.2024C17.8935 23.0923 17.9596 22.992 18.0432 22.9074C18.1267 22.8228 18.2262 22.7555 18.3358 22.7094C18.4453 22.6632 18.563 22.6391 18.6819 22.6384Z" fill="#F4BF52"/>
</svg>
